# xmcd
#
# Track frame offsets:
#	182
#	16530
#	28962
#	53657
#	68680
#	94117
#	110305
#	124997
#	142325
#	168350
#	183427
#	198585
#	216417
#	245515
#
# Disc length: 3457 seconds
#
# Revision: 2
# Processed by: cddbd v1.4PL0 Copyright (c) Steve Scherf et al.
# Submitted via: EasyCDDAExtractor 4.6.0.1
#
DISCID=cb0d7f0e
DTITLE=Dana Gillespie and Joachim Palden - Feat. Magic Slim and The Teardrops - Bi
DTITLE=g Boy
DYEAR=1992
DGENRE=Blues
TTITLE0=Big Boy
TTITLE1=Heartbeat Boogie
TTITLE2=Be My Sugar
TTITLE3=Going, Going, Gone
TTITLE4=Mixed Emotions
TTITLE5=Dip Strick
TTITLE6=Out Of Order
TTITLE7=Crazy 'bout My DS
TTITLE8=Treat Me Tender Tonight
TTITLE9=Blow Crazy
TTITLE10=Take Me To The Top
TTITLE11=Fine And Fany Free
TTITLE12=Got It Bad
TTITLE13=Your Mind Is On Vacation
EXTD=
EXTT0=
EXTT1=
EXTT2=
EXTT3=
EXTT4=
EXTT5=
EXTT6=
EXTT7=
EXTT8=
EXTT9=
EXTT10=
EXTT11=
EXTT12=
EXTT13=
PLAYORDER=
